<svg version="1.1" xmlns="http://www.w3.org/2000/svg" xmlns:xlink="http://www.w3.org/1999/xlink" xmlns:i="http://ns.adobe.com/AdobeIllustrator/10.0/" xmlns:sketch="http://www.bohemiancoding.com/sketch/ns" height="100%" width="100%" x="0px" y="0px" viewBox="0 0 640 480" xml:space="preserve" preserveAspectRatio="xMidYMid meet" class=""><defs><linearGradient id="textGradient1503038689"><stop offset="0" stop-color="#25235e"></stop><stop offset="1" stop-color="#ae4792"></stop></linearGradient></defs>{{text2Gradient}}<defs><linearGradient id="iconGradient1503038689"><stop offset="0" stop-color="#25235e"></stop><stop offset="1" stop-color="#ae4792"></stop></linearGradient></defs><defs><linearGradient id="frameGradient1503038689"><stop offset="0" stop-color="#25235e"></stop><stop offset="1" stop-color="#ae4792"></stop></linearGradient></defs><rect x="0px" y="0px" width="100%" height="100%" fill="transparent"></rect><g class="logo-container-box logoContainerBox" transform="scale(1) translate(0,0)"><g class="container_1" transform="scale(0.87) translate(87.87827151945265,70.8389824176657)" fill="url(#frameGradient1503038689)"><path class="st0" d="M113.3,199.8c0,0-2.6,83.1,64,130.8s145.6,47.2,198.8,9.8s75.2-88.3,76.4-125.9s-3.5-65.7-22-93.2  C412,93.9,383,59.2,334.4,45.3c0,0,104.3,36.3,106.9,153.1c0,0,1.3-103.8-109.8-149.8c0,0-74.7-36.9-163.2,36c0,0,29.1-35.2,92-46.9  c0,0-106.8-0.4-149.8,119c0,0-20,48.6,3.9,112s76.4,88.1,76.4,88.1s-81.6-33.9-90.3-143.7S185.2,36.9,267.7,34.3  c82.5-2.6,134.6,37.3,162.4,76.4c0,0-40.8-75.5-132-82.5c0,0,115.5,1.3,153.2,124.6s-57.7,203.6-99,216.2s-112,33-186.7-36.5  c0,0,96.4,83.8,199.7,26c0,0,64.3-35.2,81.6-98.1c0,0-39.9,108.5-156.7,112.9S106.9,271.2,113.3,199.8z"></path></g><g class="containerBody" transform="scale(0.5902069477297579) translate(222.18272122469818,204.44596654718572)"><g class="sampleIconBox" transform="scale(1) translate(0,0)"><g class="sampleIcons_1" transform="scale(2.4222123662148727) translate(82.03425333915501,-0.6233412121413977)" fill="url(#iconGradient1503038689)"><g><polygon points="56.841,90.222 56.845,90.218 56.843,90.22  "></polygon><path d="M90.482,37.7C85.998,22.096,76.316,10.819,59.001,6.561c-2.03-0.499-4.084-1.189-6.977-0.579   c10.211,2.413,18.252,6.976,23.843,14.683c8.758,12.074,11.765,25.599,10.377,40.043c-0.127,1.32,0.287,2.92-1.104,4.145   c-2.191-11.881-5.642-19.967-9.69-22.259c7.368,17.143,7.746,33.831-2.231,49.968c0.562,0.372,0.878,0.222,1.147-0.055   C89.653,76.818,96.562,58.856,90.482,37.7z"></path><path d="M48.832,50.596c-6.281-6.853-12.595-13.693-15.204-22.726c-0.133-0.461-0.235-1.217-1.003-0.93   c-0.768,0.288-0.486,1.121-0.373,1.622c0.812,3.589,1.742,7.147,3.429,10.493c2.98,5.908,7.085,11.116,11.272,16.282   c4.238,5.23,8.705,10.311,12.075,16.116c6.318,10.881,4.52,14.549-2.262,24.29C76.109,87.271,79.782,76.619,48.832,50.596z"></path><path d="M26.13,42.62c-4.054,4.958-7.187,9.676-9.501,14.838c-5.335,11.903-2.821,21.793,7.606,30.232   c1.839,1.488,3.677,3.008,6.761,4.16c-1.587-2.096-2.727-3.547-3.807-5.037C8.333,70,26.123,45.542,26.13,42.62z"></path><path d="M50.413,39.718c-6.939-5.171-11.906-11.55-13.959-19.757c-0.423-1.69-0.76-3.398-1.137-5.098   c-0.215,0.006-0.431,0.012-0.646,0.018c-0.043,0.818-0.149,1.638-0.118,2.453c0.236,6.193,2.181,11.879,5.766,17.077   c4.409,6.393,10.31,11.529,16.008,16.836c6.591,6.14,12.88,12.481,15.725,21.096c0.022,0.067,0.302,0.058,0.666,0.118   c-0.597-8.433-3.253-16.003-9.335-22.337C59.541,46.123,54.868,43.038,50.413,39.718z"></path><path d="M32.934,6.445C20.999,6.283,3.559,26.988,8.258,41.6c1.353-7.154,3.958-13.838,7.928-20.009   C20.233,15.3,25.281,9.902,32.934,6.445z"></path><path d="M21.92,37.831c0.267-0.444,0.677-1.004,0.083-1.401c-0.601-0.403-1.011,0.189-1.378,0.543   c-1.891,1.818-3.827,3.599-5.627,5.494c-6.902,7.264-7.943,15.48-4.213,24.423c-0.157-8.493,3.291-15.921,7.533-23.12   C19.493,41.776,20.729,39.815,21.92,37.831z"></path></g></g></g><g class="sampleTexts_1" transform="scale(1) translate(0,-2.417898559570318)"><g class="logo--name svgLogoName_1 logoNameBox" transform="scale(1) translate(135.15672504901886,318.8967346191406)" fill="url(#textGradient1503038689)"><path d="M28.37 3.94L28.37 3.94Q26.65 4.43 25.09 4.47L25.09 4.47L25.09 4.47Q23.53 4.51 21.94 4.59L21.94 4.59L21.94 4.59Q20.34 4.67 17.55 4.67L17.55 4.67L17.55 4.67Q14.76 4.67 9.18 4.51L9.18 4.51L9.18 4.51Q7.87 4.59 6.56 4.59L6.56 4.59L6.56 4.59Q5.25 4.59 4.10 4.10L4.10 4.10L4.10 4.10Q1.56 3.03 0.66-0.82L0.66-0.82L0.66-0.82Q0.25-2.62-0.29-3.36L-0.29-3.36L-0.29-3.36Q-0.82-4.10-1.15-4.76L-1.15-4.76L-1.15-4.76Q-1.97-6.07-1.03-9.10L-1.03-9.10L-1.03-9.10Q-0.08-12.14 1.39-16.61L1.39-16.61L1.39-16.61Q2.87-21.07 4.76-26.08L4.76-26.08L4.76-26.08Q9.18-37.97 12.71-44.94L12.71-44.94L12.71-44.94Q14.10-48.05 15.13-50.35L15.13-50.35L15.13-50.35Q16.15-52.64 16.97-54.33L16.97-54.33L16.97-54.33Q17.79-56.01 17.79-56.09L17.79-56.09L17.79-56.09Q18.61-59.20 24.11-61.34L24.11-61.34L24.11-61.34Q29.44-63.55 33.78-62.48L33.78-62.48L33.78-62.48Q38.62-61.25 38.05-56.09L38.05-56.09L38.05-56.09Q36.90-51.00 34.65-45.92L34.65-45.92L34.65-45.92Q32.39-40.84 29.52-35.26L29.52-35.26L29.52-35.26Q26.65-29.68 23.29-23.45L23.29-23.45L23.29-23.45Q19.93-17.22 16.65-9.92L16.65-9.92L16.65-9.92Q16.56-9.59 16.97-9.35L16.97-9.35L16.97-9.35Q18.04-9.43 19.97-10.00L19.97-10.00L19.97-10.00Q21.89-10.58 23.98-11.03L23.98-11.03L23.98-11.03Q26.08-11.48 28.13-11.48L28.13-11.48L28.13-11.48Q30.18-11.48 31.57-10.41L31.57-10.41L31.57-10.41Q31.49-8.94 32.31-8.08L32.31-8.08L32.31-8.08Q33.13-7.22 33.95-6.40L33.95-6.40L33.95-6.40Q36.00-4.26 34.28-0.74L34.28-0.74L34.28-0.74Q32.64 2.71 28.37 3.94L28.37 3.94ZM50.77-35.01L50.77-35.01L50.77-35.01Q52.50-36.24 55.04-35.59L55.04-35.59L55.04-35.59Q55.53-35.51 56.02-35.51L56.02-35.51L56.02-35.51Q57.83-39.20 62.25-39.36L62.25-39.36L62.25-39.36Q63.40-39.44 65.45-39.77L65.45-39.77L65.45-39.77Q67.50-40.10 70.41-39.61L70.41-39.61L70.41-39.61Q73.32-39.11 75.54-37.88L75.54-37.88L75.54-37.88Q80.38-35.26 81.36-30.34L81.36-30.34L81.36-30.34Q83.33-23.12 80.79-14.60L80.79-14.60L80.79-14.60Q78.08-5.17 71.60 0.49L71.60 0.49L71.60 0.49Q68.65 3.12 65.37 3.81L65.37 3.81L65.37 3.81Q62.09 4.51 59.47 4.59L59.47 4.59L59.47 4.59Q56.84 4.67 54.67 4.63L54.67 4.63L54.67 4.63Q52.50 4.59 50.45 4.18L50.45 4.18L50.45 4.18Q46.02 3.28 43.15 0L43.15 0L43.15 0Q39.79-3.69 40.28-11.48L40.28-11.48L40.28-11.48Q40.61-18.37 43.76-25.38L43.76-25.38L43.76-25.38Q46.92-32.39 50.77-35.01ZM65.21-18.53L65.21-18.53L65.21-18.53Q63.16-17.88 61.35-17.96L61.35-17.96L61.35-17.96Q60.45-17.06 59.75-16.03L59.75-16.03L59.75-16.03Q59.06-15.01 57.91-14.15L57.91-14.15L57.91-14.15Q56.76-13.28 56.76-13.45L56.76-13.45L56.76-13.45Q55.37-11.48 54.46-9.39L54.46-9.39L54.46-9.39Q53.56-7.30 54.46-5.17L54.46-5.17L54.46-5.17Q57.74-4.84 59.30-5.33L59.30-5.33L59.30-5.33Q60.86-5.82 62.21-7.22L62.21-7.22L62.21-7.22Q63.57-8.61 64.30-10.50L64.30-10.50L64.30-10.50Q65.78-14.02 65.21-18.53ZM94.74-35.01L94.74-35.01L94.74-35.01Q96.46-36.24 99.01-35.59L99.01-35.59L99.01-35.59Q99.50-35.51 99.99-35.51L99.99-35.51L99.99-35.51Q101.79-39.20 106.22-39.36L106.22-39.36L106.22-39.36Q107.37-39.44 109.42-39.77L109.42-39.77L109.42-39.77Q111.47-40.10 114.38-39.61L114.38-39.61L114.38-39.61Q117.29-39.11 119.51-37.88L119.51-37.88L119.51-37.88Q124.34-35.26 125.33-30.34L125.33-30.34L125.33-30.34Q127.30-23.12 124.75-14.60L124.75-14.60L124.75-14.60Q122.05-5.17 115.57 0.49L115.57 0.49L115.57 0.49Q112.62 3.12 109.34 3.81L109.34 3.81L109.34 3.81Q106.06 4.51 103.43 4.59L103.43 4.59L103.43 4.59Q100.81 4.67 98.64 4.63L98.64 4.63L98.64 4.63Q96.46 4.59 94.41 4.18L94.41 4.18L94.41 4.18Q89.99 3.28 87.12 0L87.12 0L87.12 0Q83.75-3.69 84.25-11.48L84.25-11.48L84.25-11.48Q84.57-18.37 87.73-25.38L87.73-25.38L87.73-25.38Q90.89-32.39 94.74-35.01ZM109.17-18.53L109.17-18.53L109.17-18.53Q107.12-17.88 105.32-17.96L105.32-17.96L105.32-17.96Q104.42-17.06 103.72-16.03L103.72-16.03L103.72-16.03Q103.02-15.01 101.88-14.15L101.88-14.15L101.88-14.15Q100.73-13.28 100.73-13.45L100.73-13.45L100.73-13.45Q99.33-11.48 98.43-9.39L98.43-9.39L98.43-9.39Q97.53-7.30 98.43-5.17L98.43-5.17L98.43-5.17Q101.71-4.84 103.27-5.33L103.27-5.33L103.27-5.33Q104.83-5.82 106.18-7.22L106.18-7.22L106.18-7.22Q107.53-8.61 108.27-10.50L108.27-10.50L108.27-10.50Q109.75-14.02 109.17-18.53ZM143.38-64.37L143.38-64.37L143.38-64.37Q145.19-66.58 147.73-66.83L147.73-66.83L147.73-66.83Q150.27-67.08 152.65-66.05L152.65-66.05L152.65-66.05Q155.03-65.03 156.71-62.94L156.71-62.94L156.71-62.94Q158.39-60.84 158.55-58.30L158.55-58.30L157.82-55.92L157.82-55.92Q158.72-54.86 159.42-54.20L159.42-54.20L159.42-54.20Q160.11-53.55 160.19-52.15L160.19-52.15L160.19-52.15Q160.69-51.00 156.09-43.05L156.09-43.05L156.09-43.05Q154.21-39.77 152.12-36.20L152.12-36.20L152.12-36.20Q150.03-32.64 148.71-29.85L148.71-29.85L148.71-29.85Q149.70-30.09 150.68-30.26L150.68-30.26L150.68-30.26Q151.67-30.42 152.65-30.67L152.65-30.67L152.65-30.67Q158.72-32.23 160.85-32.27L160.85-32.27L160.85-32.27Q162.98-32.31 164.38-31.82L164.38-31.82L164.38-31.82Q168.15-30.34 168.31-27.22L168.31-27.22L168.31-27.22Q167.16-24.52 159.70-19.68L159.70-19.68L159.70-19.68Q157.98-18.61 156.91-17.88L156.91-17.88L149.78-12.79L149.78-12.79Q149.21-11.89 148.96-11.07L148.96-11.07L148.96-10.99L148.96-10.99Q149.12-10.58 151.05-9.84L151.05-9.84L151.05-9.84Q152.98-9.10 154.37-8.53L154.37-8.53L154.37-8.53Q157.65-7.05 160.19-4.51L160.19-4.51L160.19-4.51Q161.01-3.61 161.26-1.84L161.26-1.84L161.26-1.84Q161.51-0.08 160.73 1.39L160.73 1.39L160.73 1.39Q159.95 2.87 157.98 3.53L157.98 3.53L157.98 3.53Q156.01 4.18 152.49 2.95L152.49 2.95L152.49 2.95Q147.32 0.66 140.27-7.30L140.27-7.30L140.27-7.30Q139.45-4.43 138.67-1.68L138.67-1.68L138.67-1.68Q137.89 1.07 136.99 3.94L136.99 3.94L136.99 3.94Q135.76 6.72 131.25 6.56L131.25 6.56L131.25 6.56Q129.44 6.56 128.01 5.82L128.01 5.82L128.01 5.82Q126.57 5.08 126.33 3.85L126.33 3.85L126.33 3.85Q125.67 2.05 125.67 1.19L125.67 1.19L125.67 1.19Q125.67 0.33 126.08-0.82L126.08-0.82L126.08-0.82Q127.97-5.58 128.46-8.41L128.46-8.41L128.46-8.41Q128.95-11.23 129.12-11.73L129.12-11.73L129.12-11.73Q126.82-13.20 126.41-16.40L126.41-16.40L126.41-16.40Q125.92-19.52 127.89-21.98L127.89-21.98L127.89-21.98Q130.51-22.96 131.66-23.45L131.66-23.45L131.66-23.45Q132.15-26.57 133.30-30.18L133.30-30.18L133.30-30.18Q135.35-36.65 136.46-41.41L136.46-41.41L136.46-41.41Q137.56-46.17 139.65-52.19L139.65-52.19L139.65-52.19Q141.74-58.22 143.38-64.37ZM178.09-35.51L178.09-35.51L178.09-35.51Q179.15-38.21 183.17-39.20L183.17-39.20L183.17-39.20Q186.94-40.18 190.22-38.95L190.22-38.95L190.22-38.95Q193.58-37.64 193.26-34.69L193.26-34.69L193.26-34.69Q192.35-31.82 191.00-27.68L191.00-27.68L191.00-27.68Q189.65-23.53 188.42-19.19L188.42-19.19L188.42-19.19Q185.14-8.04 184.65-3.44L184.65-3.44L184.65-3.44Q183.42 3.94 180.55 4.51L180.55 4.51L180.55 4.51Q179.73 4.67 178.99 4.76L178.99 4.76L178.99 4.76Q177.18 4.84 176.69 5.74L176.69 5.74L176.69 5.74Q176.20 6.64 175.05 7.09L175.05 7.09L175.05 7.09Q173.90 7.54 172.55 7.50L172.55 7.50L172.55 7.50Q171.20 7.46 169.80 6.85L169.80 6.85L169.80 6.85Q168.41 6.23 167.43 5.08L167.43 5.08L167.43 5.08Q165.13 2.30 166.52-2.38L166.52-2.38L166.52-2.38Q167.84-11.32 173.17-25.09L173.17-25.09L173.17-25.09Q175.71-31.90 178.09-35.51ZM193.58-47.81L193.58-47.81L193.58-47.81Q189.57-46.99 187.06-48.30L187.06-48.30L187.06-48.30Q184.56-49.61 184.15-51.46L184.15-51.46L184.15-51.46Q183.74-53.30 185.30-55.27L185.30-55.27L185.30-55.27Q187.11-57.73 190.71-58.47L190.71-58.47L190.71-58.47Q192.35-58.63 193.09-58.63L193.09-58.63L193.09-58.63Q193.83-58.63 194.90-58.30L194.90-58.30L194.90-58.30Q197.60-58.06 198.42-55.92L198.42-55.92L198.42-55.92Q199.57-54.12 198.63-51.82L198.63-51.82L198.63-51.82Q197.68-49.53 193.58-47.81ZM224.19 1.97L224.19 1.97L224.19 1.97Q220.99 4.59 216.60 5.95L216.60 5.95L216.60 5.95Q212.21 7.30 207.79 7.38L207.79 7.38L207.79 7.38Q203.36 7.46 199.50 6.31L199.50 6.31L199.50 6.31Q195.65 5.17 193.44 2.71L193.44 2.71L193.44 2.71Q190.81-0.08 191.63-2.87L191.63-2.87L191.63-2.87Q192.04-4.02 193.07-4.67L193.07-4.67L193.07-4.67Q194.09-5.33 195.57-5.00L195.57-5.00L195.57-5.00Q196.55-4.92 197.00-5.54L197.00-5.54L197.00-5.54Q197.45-6.15 197.78-6.93L197.78-6.93L197.78-6.93Q198.11-7.71 198.52-8.41L198.52-8.41L198.52-8.41Q198.93-9.10 199.83-9.10L199.83-9.10L199.83-9.10Q214.26-8.69 214.84-11.64L214.84-11.64L214.84-11.64Q213.85-12.55 212.42-13.20L212.42-13.20L212.42-13.20Q210.98-13.86 209.51-14.51L209.51-14.51L209.51-14.51Q205.90-16.15 204.67-18.12L204.67-18.12L204.67-18.12Q203.11-18.94 202.29-22.06L202.29-22.06L202.29-22.06Q201.88-23.45 201.88-24.93L201.88-24.93L201.88-24.93Q201.88-26.40 202.37-27.63L202.37-27.63L202.37-27.63Q202.13-30.83 206.31-34.69L206.31-34.69L206.31-34.69Q207.46-35.75 209.18-36.98L209.18-36.98L209.18-36.98Q210.90-38.21 214.35-39.36L214.35-39.36L214.35-39.36Q217.79-40.51 221.19-41.04L221.19-41.04L221.19-41.04Q224.60-41.57 227.34-41.41L227.34-41.41L227.34-41.41Q230.09-41.25 231.28-40.10L231.28-40.10L231.28-40.10Q232.47-38.95 233.17-37.23L233.17-37.23L233.17-37.23Q233.86-35.51 233.62-33.87L233.62-33.87L233.62-33.87Q232.96-30.18 227.55-28.78L227.55-28.78L227.55-28.78Q220.74-27.80 220.99-26.98L220.99-26.98L220.99-26.98Q220.99-26.81 220.41-26.57L220.41-26.57L220.41-26.57Q226.73-22.22 229.19-18.04L229.19-18.04L229.19-18.04Q232.55-12.30 230.17-5.25L230.17-5.25L230.17-5.25Q230.58-2.95 226.07 0.49L226.07 0.49L226.07 0.49Q225.01 1.31 224.19 1.97ZM247.90-35.51L247.90-35.51L247.90-35.51Q248.97-38.21 252.98-39.20L252.98-39.20L252.98-39.20Q256.76-40.18 260.04-38.95L260.04-38.95L260.04-38.95Q263.40-37.64 263.07-34.69L263.07-34.69L263.07-34.69Q262.17-31.82 260.81-27.68L260.81-27.68L260.81-27.68Q259.46-23.53 258.23-19.19L258.23-19.19L258.23-19.19Q254.95-8.04 254.46-3.44L254.46-3.44L254.46-3.44Q253.23 3.94 250.36 4.51L250.36 4.51L250.36 4.51Q249.54 4.67 248.80 4.76L248.80 4.76L248.80 4.76Q247.00 4.84 246.51 5.74L246.51 5.74L246.51 5.74Q246.01 6.64 244.87 7.09L244.87 7.09L244.87 7.09Q243.72 7.54 242.37 7.50L242.37 7.50L242.37 7.50Q241.01 7.46 239.62 6.85L239.62 6.85L239.62 6.85Q238.22 6.23 237.24 5.08L237.24 5.08L237.24 5.08Q234.94 2.30 236.34-2.38L236.34-2.38L236.34-2.38Q237.65-11.32 242.98-25.09L242.98-25.09L242.98-25.09Q245.52-31.90 247.90-35.51ZM263.40-47.81L263.40-47.81L263.40-47.81Q259.38-46.99 256.88-48.30L256.88-48.30L256.88-48.30Q254.38-49.61 253.97-51.46L253.97-51.46L253.97-51.46Q253.56-53.30 255.12-55.27L255.12-55.27L255.12-55.27Q256.92-57.73 260.53-58.47L260.53-58.47L260.53-58.47Q262.17-58.63 262.91-58.63L262.91-58.63L262.91-58.63Q263.64-58.63 264.71-58.30L264.71-58.30L264.71-58.30Q267.42-58.06 268.24-55.92L268.24-55.92L268.24-55.92Q269.38-54.12 268.44-51.82L268.44-51.82L268.44-51.82Q267.50-49.53 263.40-47.81ZM275.80-35.67L275.80-35.67L275.80-35.67Q275.96-37.23 277.76-38.21L277.76-38.21L277.76-38.21Q279.57-39.20 281.78-39.20L281.78-39.20L281.78-39.20Q284.00-39.20 286.09-38.17L286.09-38.17L286.09-38.17Q288.18-37.15 288.92-34.69L288.92-34.69L288.92-34.69Q295.89-40.75 301.63-39.36L301.63-39.36L301.63-39.36Q303.59-38.95 304.99-37.06L304.99-37.06L304.99-37.06Q309.17-41.08 314.25-42.31L314.25-42.31L314.25-42.31Q320.65-42.56 323.44-39.36L323.44-39.36L323.44-39.36Q323.85-38.95 324.26-38.46L324.26-38.46L324.26-38.46Q325.41-37.23 325.57-36.82L325.57-36.82L325.57-36.82Q327.05-34.52 326.39-26.24L326.39-26.24L326.39-26.24Q325.49-15.50 322.29-4.67L322.29-4.67L322.29-4.67Q320.57 0.82 319.17 0.98L319.17 0.98L319.17 0.98Q318.35 1.15 317.66 0.98L317.66 0.98L317.66 0.98Q316.96 0.82 316.43 0.78L316.43 0.78L316.43 0.78Q315.89 0.74 315.81 1.72L315.81 1.72L315.81 1.72Q314.17 3.85 310.81 3.85L310.81 3.85L310.81 3.85Q307.53 3.85 305.23 1.80L305.23 1.80L305.23 1.80Q302.69-0.33 303.47-3.24L303.47-3.24L303.47-3.24Q304.25-6.15 305.23-9.22L305.23-9.22L305.23-9.22Q306.22-12.30 307.37-15.58L307.37-15.58L307.37-15.58Q309.33-21.32 311.71-27.55L311.71-27.55L311.71-27.55Q309.99-25.58 307.04-20.13L307.04-20.13L307.04-20.13Q304.09-14.68 303.35-13.61L303.35-13.61L303.35-13.61Q301.95-10.82 301.05-9.22L301.05-9.22L301.05-9.22Q300.15-7.63 298.63-6.68L298.63-6.68L298.63-6.68Q297.12-5.74 295.85-5.49L295.85-5.49L295.85-5.49Q294.57-5.25 293.43-5.41L293.43-5.41L293.43-5.41Q290.72-5.82 289.57-7.71L289.57-7.71L289.57-7.71Q289.33-8.36 289.08-9.02L289.08-9.02L289.08-9.02Q288.83-9.68 288.67-10.82L288.67-10.82L288.67-10.82Q288.42-13.37 289.33-19.11L289.33-19.11L289.16-18.86L289.16-18.86Q290.15-19.84 289.82-19.35L289.82-19.35L289.82-19.35Q286.54-14.68 285.88-13.37L285.88-13.37L285.88-13.37Q285.23-12.05 284.49-10.46L284.49-10.46L284.49-10.46Q283.75-8.86 282.77-6.77L282.77-6.77L282.77-6.77Q281.78-4.67 281.21-3.03L281.21-3.03L281.21-3.03Q280.63-1.39 279.81 0.16L279.81 0.16L279.81 0.16Q276.12 6.56 266.86 5.33L266.86 5.33L266.86 5.33Q264.89 5.08 263.50 4.39L263.50 4.39L263.50 4.39Q262.10 3.69 262.35 2.30L262.35 2.30L262.35 2.30Q263.00-0.98 265.38-8.61L265.38-8.61L265.38-8.61Q270.06-23.70 270.96-28.04L270.96-28.04L270.96-28.04Q271.53-29.52 271.98-31.08L271.98-31.08L271.98-31.08Q272.43-32.64 272.93-33.78L272.93-33.78L272.93-33.78Q273.91-36.49 275.80-35.67ZM304.25-15.42L304.25-15.42L304.25-15.25L304.25-15.25Q304.41-15.58 304.25-15.42ZM339.77-35.01L339.77-35.01L339.77-35.01Q341.49-36.24 344.04-35.59L344.04-35.59L344.04-35.59Q344.53-35.51 345.02-35.51L345.02-35.51L345.02-35.51Q346.82-39.20 351.25-39.36L351.25-39.36L351.25-39.36Q352.40-39.44 354.45-39.77L354.45-39.77L354.45-39.77Q356.50-40.10 359.41-39.61L359.41-39.61L359.41-39.61Q362.32-39.11 364.54-37.88L364.54-37.88L364.54-37.88Q369.37-35.26 370.36-30.34L370.36-30.34L370.36-30.34Q372.33-23.12 369.78-14.60L369.78-14.60L369.78-14.60Q367.08-5.17 360.60 0.49L360.60 0.49L360.60 0.49Q357.65 3.12 354.37 3.81L354.37 3.81L354.37 3.81Q351.09 4.51 348.46 4.59L348.46 4.59L348.46 4.59Q345.84 4.67 343.67 4.63L343.67 4.63L343.67 4.63Q341.49 4.59 339.44 4.18L339.44 4.18L339.44 4.18Q335.02 3.28 332.15 0L332.15 0L332.15 0Q328.78-3.69 329.28-11.48L329.28-11.48L329.28-11.48Q329.60-18.37 332.76-25.38L332.76-25.38L332.76-25.38Q335.92-32.39 339.77-35.01ZM354.20-18.53L354.20-18.53L354.20-18.53Q352.15-17.88 350.35-17.96L350.35-17.96L350.35-17.96Q349.45-17.06 348.75-16.03L348.75-16.03L348.75-16.03Q348.05-15.01 346.91-14.15L346.91-14.15L346.91-14.15Q345.76-13.28 345.76-13.45L345.76-13.45L345.76-13.45Q344.36-11.48 343.46-9.39L343.46-9.39L343.46-9.39Q342.56-7.30 343.46-5.17L343.46-5.17L343.46-5.17Q346.74-4.84 348.30-5.33L348.30-5.33L348.30-5.33Q349.86-5.82 351.21-7.22L351.21-7.22L351.21-7.22Q352.56-8.61 353.30-10.50L353.30-10.50L353.30-10.50Q354.78-14.02 354.20-18.53Z"></path></g><g id="" class="logo--name svgSloganText_1 sloganBox" transform="scale(1) translate(320,345.6)" fill="#000000"></g></g></g></g></svg>